# xmcd
#
# Track frame offsets:
#	151
#	18973
#	49400
#	68792
#	88751
#	116985
#	146796
#	167727
#	194019
#	224283
#	247122
#
# Disc length: 3582 seconds
#
# Revision: 1
# Processed by: cddbd v1.5.2PL0 Copyright (c) Steve Scherf et al.
# Submitted via: EasyCDDAExtractor 10.2.0.1
#
DISCID=ae0dfc0b
DTITLE=Johnny Cash - The Lowdown... Maximum Johnny Cash, The Unauthorised Biog
DTITLE=raphy Of Johnny Cash
DYEAR=2007
DGENRE=Spoken Word
TTITLE0=Introduction
TTITLE1=Farmboy
TTITLE2=Memphis
TTITLE3=The Sun Kings
TTITLE4=Into The Mainstream
TTITLE5=New Love
TTITLE6=Behind Bars
TTITLE7=Changing Fortunes
TTITLE8=The Invisible Eighties
TTITLE9=The Legend Of An American Recording Artist
TTITLE10=The Wild Horses Tamed  At Last
EXTD=
EXTT0=
EXTT1=
EXTT2=
EXTT3=
EXTT4=
EXTT5=
EXTT6=
EXTT7=
EXTT8=
EXTT9=
EXTT10=
PLAYORDER=
